<svg xmlns="http://www.w3.org/2000/svg" role="img" viewBox="0 0 420 420">
  <style>.st0{fill:#446ca9}.st1{fill:#76c4d5}</style>
  <path d="M 140 12.01 A 210 210, 0, 0, 0, 12.01 140 H 66.13 A 160 160, 0, 0, 1, 140 66.13 Z" class="st0" />
  <path d="M 12.01 140 A 210 210, 0, 0, 0, 12.01 280 H 66.13 A 160 160, 0, 0, 1, 66.13 140 Z" class="st1" />
  <path d="M 12.01 280 A 210 210, 0, 0, 0, 140 407.99 V 353.87 A 160 160, 0, 0, 1, 66.13 280 Z" class="st0" />
  <path d="M 140 407.99 A 210 210, 0, 0, 0, 280 407.99 V 353.87 A 160 160, 0, 0, 1, 140 353.87 Z" class="st1" />
  <path d="M 280 407.99 A 210 210, 0, 0, 0, 407.99 280 H 353.87 A 160 160, 0, 0, 1, 280 353.87 Z" class="st0" />
  <path d="M 407.99 280 A 210 210, 0, 0, 0, 407.99 140 H 353.87 A 160 160, 0, 0, 1, 353.87 280 Z" class="st1" />
  <path d="M 407.99 140 A 210 210, 0, 0, 0, 280 12.01 V 66.13 A 160 160, 0, 0, 1, 353.87 140 Z" class="st0" />
  <path d="M 280 12.01 A 210 210, 0, 0, 0, 140 12.01 V 66.13 A 160 160, 0, 0, 1, 280 66.13 Z" class="st1" />
  <path d="M 140 60 L 220 140 h 50 L 150 20 Z" class="st1"/>
  <path d="M 60 140 L 140 220 v 50 L 20 150 Z" class="st1"/>
  <path d="M 360 280 L 280 200 v -50 L 400 270 Z" class="st1"/>
  <path d="M 280 360 L 200 280 h -50 L 270 400 Z" class="st1"/>
</svg>
