<?xml version="1.0" encoding="UTF-8" standalone="no"?>
<svg
   xmlns:dc="http://purl.org/dc/elements/1.1/"
   xmlns:cc="http://creativecommons.org/ns#"
   xmlns:rdf="http://www.w3.org/1999/02/22-rdf-syntax-ns#"
   xmlns:svg="http://www.w3.org/2000/svg"
   xmlns="http://www.w3.org/2000/svg"
   xmlns:sodipodi="http://sodipodi.sourceforge.net/DTD/sodipodi-0.dtd"
   xmlns:inkscape="http://www.inkscape.org/namespaces/inkscape"
   inkscape:version="1.0 (4035a4f, 2020-05-01)"
   sodipodi:docname="radar-logo-horizontal.svg"
   id="svg213"
   version="1.1"
   viewBox="0 0 547.09106 111.16932"
   height="111.16932mm"
   width="547.09106mm">
  <defs
     id="defs207">
    <rect
       id="rect418"
       height="52.916668"
       width="381"
       y="63.5"
       x="508" />
    <rect
       id="rect406"
       height="52.916668"
       width="232.83333"
       y="10.583333"
       x="497.41666" />
    <rect
       id="rect388"
       height="109.6131"
       width="99.029762"
       y="0.75595236"
       x="112.6369" />
  </defs>
  <sodipodi:namedview
     inkscape:window-maximized="0"
     inkscape:window-y="23"
     inkscape:window-x="0"
     inkscape:window-height="1035"
     inkscape:window-width="1920"
     showgrid="true"
     inkscape:document-rotation="0"
     inkscape:current-layer="layer1"
     inkscape:document-units="mm"
     inkscape:cy="558.57152"
     inkscape:cx="1574.5078"
     inkscape:zoom="0.35"
     inkscape:pageshadow="2"
     inkscape:pageopacity="0.0"
     borderopacity="1.0"
     bordercolor="#666666"
     pagecolor="#ffffff"
     id="base">
    <inkscape:grid
       originy="-0.37795281"
       originx="-0.3779498"
       id="grid402"
       type="xygrid" />
  </sodipodi:namedview>
  <metadata
     id="metadata210">
    <rdf:RDF>
      <cc:Work
         rdf:about="">
        <dc:format>image/svg+xml</dc:format>
        <dc:type
           rdf:resource="http://purl.org/dc/dcmitype/StillImage" />
      </cc:Work>
    </rdf:RDF>
  </metadata>
  <g
     transform="translate(-0.37794978,-0.37795288)"
     id="layer1"
     inkscape:groupmode="layer"
     inkscape:label="Layer 1">
    <g
       transform="matrix(0.26458333,0,0,0.26458333,0.37797657,0.37797967)"
       id="g384">
      <path
         d="M 140,12.01 A 210,210 0 0 0 12.01,140 H 66.13 A 160,160 0 0 1 140,66.13 Z"
         class="st0"
         id="path339" />
      <path
         d="m 12.01,140 a 210,210 0 0 0 0,140 h 54.12 a 160,160 0 0 1 0,-140 z"
         class="st1"
         id="path341" />
      <path
         d="M 12.01,280 A 210,210 0 0 0 140,407.99 V 353.87 A 160,160 0 0 1 66.13,280 Z"
         class="st0"
         id="path343" />
      <path
         d="m 140,407.99 a 210,210 0 0 0 140,0 v -54.12 a 160,160 0 0 1 -140,0 z"
         class="st1"
         id="path345" />
      <path
         d="M 280,407.99 A 210,210 0 0 0 407.99,280 H 353.87 A 160,160 0 0 1 280,353.87 Z"
         class="st0"
         id="path347" />
      <path
         d="m 407.99,280 a 210,210 0 0 0 0,-140 h -54.12 a 160,160 0 0 1 0,140 z"
         class="st1"
         id="path349" />
      <path
         d="M 407.99,140 A 210,210 0 0 0 280,12.01 V 66.13 A 160,160 0 0 1 353.87,140 Z"
         class="st0"
         id="path351" />
      <path
         d="m 280,12.01 a 210,210 0 0 0 -140,0 v 54.12 a 160,160 0 0 1 140,0 z"
         class="st1"
         id="path353" />
      <path
         d="m 140,60 80,80 h 50 L 150,20 Z"
         class="st1"
         id="path355" />
      <path
         d="m 60,140 80,80 v 50 L 20,150 Z"
         class="st1"
         id="path357" />
      <path
         d="M 360,280 280,200 V 150 L 400,270 Z"
         class="st1"
         id="path359" />
      <path
         d="M 280,360 200,280 H 150 L 270,400 Z"
         class="st1"
         id="path361" />
    </g>
    <text
       style="font-style:normal;font-weight:normal;font-size:10.58329999999999949px;line-height:1.25;font-family:sans-serif;letter-spacing:0px;white-space:pre;shape-inside:url(#rect388);fill:#000000;fill-opacity:1;stroke:none;"
       id="text386"
       xml:space="preserve" />
    <text
       style="font-size:10.58329999999999949px;line-height:1.2;font-family:sans-serif;letter-spacing:0px;white-space:pre;shape-inside:url(#rect406);"
       id="text404"
       xml:space="preserve" />
    <text
       id="text412"
       y="47.624996"
       x="132.29163"
       style="font-style:normal;font-variant:normal;font-weight:normal;font-stretch:normal;font-size:63.5px;line-height:1.2;font-family:Helvetica;-inkscape-font-specification:Helvetica;letter-spacing:0px;stroke-width:0.264583"
       xml:space="preserve"><tspan
         style="font-style:normal;font-variant:normal;font-weight:normal;font-stretch:normal;font-size:63.5px;font-family:Helvetica;-inkscape-font-specification:Helvetica;stroke-width:0.264583"
         y="47.624996"
         x="132.29163"
         id="tspan410"
         sodipodi:role="line"><tspan
   id="tspan1271"
   style="font-size:63.5px;fill:#ffffff;fill-opacity:1">END</tspan> <tspan
   id="tspan1277"
   style="font-size:63.5px;fill:#ffffff;fill-opacity:1">USER</tspan></tspan><tspan
         id="tspan414"
         style="font-style:normal;font-variant:normal;font-weight:normal;font-stretch:normal;font-size:63.5px;font-family:Helvetica;-inkscape-font-specification:Helvetica;stroke-width:0.264583"
         y="123.825"
         x="132.29163"
         sodipodi:role="line" /></text>
    <text
       style="font-size:10.58329999999999949px;line-height:1.2;font-family:sans-serif;letter-spacing:0px;white-space:pre;shape-inside:url(#rect418);"
       id="text416"
       xml:space="preserve" />
    <text
       id="text424"
       y="110.36905"
       x="136.82739"
       style="font-size:63.5px;line-height:1.2;font-family:sans-serif;letter-spacing:0px;stroke-width:0.264583"
       xml:space="preserve"><tspan
         style="font-style:normal;font-variant:normal;font-weight:normal;font-stretch:normal;font-size:63.5px;font-family:Helvetica;-inkscape-font-specification:Helvetica;stroke-width:0.264583"
         y="110.36905"
         x="136.82739"
         id="tspan422"
         sodipodi:role="line"><tspan
   id="tspan1279"
   style="font-size:63.5px;fill:#ffffff;fill-opacity:1">TECH</tspan> <tspan
   id="tspan1281"
   style="font-size:63.5px;fill:#ffffff;fill-opacity:1">RADAR</tspan></tspan></text>
  </g>
  <style
     id="style337">.st0{fill:#446ca9}.st1{fill:#76c4d5}</style>
</svg>
