<svg id="Layer_1" data-name="Layer 1" xmlns="http://www.w3.org/2000/svg" viewBox="0 0 600 113"><defs><style>.cls-1{fill:#fff;}.cls-2{opacity:0.8;}</style></defs><path class="cls-1" d="M146.07226,45.36682a14.21354,14.21354,0,0,0,11.6086-5.61883l6.17418,6.36q-7.34838,8.275-17.31963,8.27361-9.972,0-16.42382-6.29759a21.28082,21.28082,0,0,1-6.45293-15.89968A21.48305,21.48305,0,0,1,130.235,16.16127a22.15077,22.15077,0,0,1,16.08479-6.421,22.79756,22.79756,0,0,1,17.78208,8.0885l-5.98907,6.792a14.03413,14.03413,0,0,0-11.36106-5.68054,13.24317,13.24317,0,0,0-9.29284,3.54989,12.37014,12.37014,0,0,0-3.85913,9.57087,13.05606,13.05606,0,0,0,3.64351,9.66308A12.01942,12.01942,0,0,0,146.07226,45.36682Z"/><path class="cls-1" d="M171.44989,53.888V10.72827h9.63186V45.30511h18.40056V53.888Z"/><path class="cls-1" d="M241.654,47.92941a23.51745,23.51745,0,0,1-32.23129,0,21.31905,21.31905,0,0,1-6.54442-15.899,21.32172,21.32172,0,0,1,6.54442-15.89967,23.51554,23.51554,0,0,1,32.23129,0,21.325,21.325,0,0,1,6.54513,15.89967A21.3223,21.3223,0,0,1,241.654,47.92941Zm-3.27257-15.86847a14.12284,14.12284,0,0,0-3.70451-9.84819,12.21376,12.21376,0,0,0-18.21472,0,14.12022,14.12022,0,0,0-3.70522,9.84819,14.00912,14.00912,0,0,0,3.70522,9.8177,12.27668,12.27668,0,0,0,18.21472,0A14.01171,14.01171,0,0,0,238.38143,32.06094Z"/><path class="cls-1" d="M267.77139,42.74324a7.88424,7.88424,0,0,0,6.482,2.99453,7.80333,7.80333,0,0,0,6.45434-2.99453q2.37464-2.9949,2.37747-8.18142V10.72827h9.63187V34.87035q0,9.38682-5.18617,14.41731a20.0256,20.0256,0,0,1-26.58268-.0305q-5.21844-5.062-5.21738-14.38681V10.72827h9.63258V34.56182Q265.36343,39.74835,267.77139,42.74324Z"/><path class="cls-1" d="M335.69024,16.3776q6.17277,5.64931,6.17489,15.71455,0,10.06452-6.02027,15.93017-6.01956,5.86637-18.37,5.86565h-14.757V10.72827h15.25211Q329.51536,10.72827,335.69024,16.3776Zm-7.07,25.655q3.54918-3.33428,3.5506-9.69357,0-6.35895-3.5506-9.78649-3.55131-3.42684-10.8972-3.42719h-5.372V45.36682h6.11248Q325.07036,45.36682,328.62025,42.03255Z"/><path class="cls-1" d="M396.69443,10.72827h9.63328V53.888h-9.63328L376.13415,26.84356V53.888h-9.63328V10.72827h9.0148l21.17876,27.78489Z"/><path class="cls-1" d="M447.69509,53.888l-4.013-9.32333H425.59L421.577,53.888H411.32664l18.64809-43.1597h9.3226L457.94544,53.888ZM434.66725,23.571l-5.43442,12.53419h10.80642Z"/><path class="cls-1" d="M478.07448,19.0636V53.888H468.4412V19.0636h-12.225V10.72827h34.0832V19.0636Z"/><path class="cls-1" d="M497.3368,10.72827h9.63328V53.888H497.3368Z"/><path class="cls-1" d="M533.51942,38.20463l10.99083-27.47636h10.43618L537.59488,53.888h-8.14949l-17.35155-43.1597H522.53Z"/><path class="cls-1" d="M591.18863,10.72827v8.58215H569.70205v8.89139H589.0282v8.21191H569.70205v8.9531h22.16606V53.888H560.06876V10.72827Z"/><polygon class="cls-1" points="20.172 71.953 6.881 71.953 6.881 102.96 37.887 102.96 37.887 89.67 20.172 89.67 20.172 71.953"/><polygon class="cls-1" points="86.61 72.052 86.61 89.67 68.991 89.67 68.894 89.573 68.894 102.96 99.899 102.96 99.899 71.953 86.511 71.953 86.61 72.052"/><polygon class="cls-1" points="6.881 40.952 20.271 40.952 20.172 40.85 20.172 23.236 20.172 23.231 37.789 23.231 37.887 23.331 37.887 9.943 6.881 9.943 6.881 40.952"/><polygon class="cls-1" points="68.894 9.943 68.894 23.231 86.61 23.231 86.61 40.952 99.899 40.952 99.899 9.943 68.894 9.943"/><g class="cls-2"><polygon class="cls-1" points="67.253 40.952 49.533 23.231 68.894 23.231 68.894 9.943 37.887 9.943 37.887 23.331 55.507 40.952 67.253 40.952"/><polygon class="cls-1" points="51.273 71.953 39.529 71.953 54.21 86.636 57.247 89.67 51.177 89.67 37.887 89.67 37.887 102.96 68.894 102.96 68.894 89.573 60.083 80.762 51.273 71.953"/><polygon class="cls-1" points="86.61 40.952 86.61 54.239 86.61 60.308 83.574 57.272 68.894 42.592 68.894 54.338 77.701 63.145 86.511 71.953 99.899 71.953 99.899 40.952 86.61 40.952"/><polygon class="cls-1" points="37.887 58.565 20.271 40.952 6.881 40.952 6.881 71.953 20.172 71.953 20.172 52.595 37.887 70.31 37.887 58.565"/></g><path class="cls-1" d="M497.267,79.633a5.2105,5.2105,0,0,0-2.87363-.72022h-2.33511V91.70952h2.33511a5.94973,5.94973,0,0,0,2.2743-.39413,3.72566,3.72566,0,0,0,1.562-1.18276,5.30158,5.30158,0,0,0,.9019-1.98621,11.73259,11.73259,0,0,0,.29533-2.78967,10.51941,10.51941,0,0,0-.52261-3.5631A4.165,4.165,0,0,0,497.267,79.633Z"/><path class="cls-1" d="M224.04477,79.633a5.20962,5.20962,0,0,0-2.87291-.72022h-2.33511V91.70952h2.33511a5.94973,5.94973,0,0,0,2.2743-.39413,3.719,3.719,0,0,0,1.56132-1.18276,5.30235,5.30235,0,0,0,.90262-1.98621,11.73259,11.73259,0,0,0,.29533-2.78967,10.518,10.518,0,0,0-.52334-3.5631A4.15755,4.15755,0,0,0,224.04477,79.633Z"/><polygon class="cls-1" points="471.869 79.429 469.671 87.297 474.265 87.297 472.096 79.429 471.869 79.429"/><path class="cls-1" d="M320.966,78.70069h-3.10816V84.735h3.06328a3.64576,3.64576,0,0,0,2.3655-.73542,2.68472,2.68472,0,0,0,.90914-2.2211,2.84187,2.84187,0,0,0-.92506-2.2895A3.42986,3.42986,0,0,0,320.966,78.70069Z"/><path class="cls-1" d="M449.663,78.70069h-3.10816V84.735h3.06184a3.643,3.643,0,0,0,2.3655-.73542,2.68552,2.68552,0,0,0,.91059-2.2211,2.84188,2.84188,0,0,0-.92507-2.2895A3.43247,3.43247,0,0,0,449.663,78.70069Z"/><path class="cls-1" d="M540.77687,78.70069h-3.10816V84.735h3.06184a3.643,3.643,0,0,0,2.3655-.73542,2.68552,2.68552,0,0,0,.91059-2.2211,2.84187,2.84187,0,0,0-.92506-2.2895A3.4325,3.4325,0,0,0,540.77687,78.70069Z"/><path class="cls-1" d="M122.33137,66.56165v37.06052H593V66.56165ZM183.03643,78.928h-8.94591v4.503h8.40014v3.63909h-8.40014v4.63945h8.94591v3.95722H169.16335v-20.696h13.87308ZM206.698,95.66674h-3.91163l-8.32414-12.41745h-.19688V95.66674h-4.63981v-20.696h3.942L201.8613,87.267h.19688V74.97075H206.698Zm23.60871-4.86709a7.60773,7.60773,0,0,1-3.07776,3.6087,10.00491,10.00491,0,0,1-5.26882,1.25839h-8.11206v-20.696h8.11206a10.21814,10.21814,0,0,1,5.29922,1.236,7.43288,7.43288,0,0,1,3.06256,3.53269,13.8052,13.8052,0,0,1,.9931,5.49611A14.05077,14.05077,0,0,1,230.3067,90.79965Zm33.382-2.28914a7.34811,7.34811,0,0,1-1.06115,3.97243,7.04208,7.04208,0,0,1-3.00248,2.63042,11.84106,11.84106,0,0,1-9.21084,0,6.97346,6.97346,0,0,1-3.00176-2.63042,7.3761,7.3761,0,0,1-1.05391-3.97243V74.97075h4.97277V87.93434a3.94822,3.94822,0,0,0,1.02351,2.97171,4.07185,4.07185,0,0,0,5.32962-.0152,3.94091,3.94091,0,0,0,1.03075-2.95651V74.97075h4.97349Zm21.66014,4.32855a6.40758,6.40758,0,0,1-2.85844,2.35755,11.39916,11.39916,0,0,1-4.67744.84906,12.01364,12.01364,0,0,1-3.74442-.51537,7.14187,7.14187,0,0,1-2.56238-1.41,5.76,5.76,0,0,1-1.48677-2.02422,6.5155,6.5155,0,0,1-.52985-2.34234H274.235a2.33605,2.33605,0,0,0,.34092.95511,2.71446,2.71446,0,0,0,.76582.79586,3.91183,3.91183,0,0,0,1.15163.53853,5.35973,5.35973,0,0,0,1.51717.19689,5.0536,5.0536,0,0,0,1.91744-.31089,2.4,2.4,0,0,0,1.114-.84906,2.12383,2.12383,0,0,0,.36482-1.22039,1.67792,1.67792,0,0,0-.77379-1.48568,6.70018,6.70018,0,0,0-2.2895-.83423l-2.92575-.63661a9.25845,9.25845,0,0,1-2.88884-1.06151,5.26387,5.26387,0,0,1-1.92541-1.91781,5.70394,5.70394,0,0,1-.68982-2.90332,5.79359,5.79359,0,0,1,1.02351-3.43425,6.545,6.545,0,0,1,2.83527-2.22869,10.55228,10.55228,0,0,1,4.20768-.781,9.83588,9.83588,0,0,1,4.343.85667,6.465,6.465,0,0,1,2.66083,2.2515,5.81094,5.81094,0,0,1,.9714,3.00212H281.346a2.49273,2.49273,0,0,0-.49293-1.15236,2.90714,2.90714,0,0,0-1.12267-.86426,4.18613,4.18613,0,0,0-1.76617-.33369,3.51491,3.51491,0,0,0-2.29674.65978,2.06674,2.06674,0,0,0-.7955,1.66012,1.57806,1.57806,0,0,0,.73542,1.3496,5.36738,5.36738,0,0,0,2.03833.77306l3.00248.62178a10.10687,10.10687,0,0,1,2.87364.9855,5.34035,5.34035,0,0,1,2.03833,1.87981,5.69629,5.69629,0,0,1,.75858,3.09332A6.29353,6.29353,0,0,1,285.34881,92.83906ZM306.372,78.928h-8.94519v4.503h8.39942v3.63909h-8.39942v4.63945H306.372v3.95722H292.49888v-20.696H306.372Zm17.8542,16.73876-3.50193-7.39908h-2.8664v7.39908h-4.89749v-20.696h8.74975a9.28826,9.28826,0,0,1,4.15339.84147,5.92518,5.92518,0,0,1,2.57831,2.3655,7.03039,7.03039,0,0,1,.87874,3.57033,6.18643,6.18643,0,0,1-.59065,2.78244,6.31064,6.31064,0,0,1-1.44913,1.94821,6.05212,6.05212,0,0,1-1.659,1.09155l4.123,8.09649Zm34.95125-16.61752h-5.64015V95.66674H348.5645V79.04922h-5.64014V74.97075h16.25306Zm19.189-.12124h-8.9452v4.503h8.39942v3.63909h-8.39942v4.63945h8.9452v3.95722H364.49329v-20.696h13.87309Zm23.14545,3.19176v.28049h-4.74548a4.5043,4.5043,0,0,0-.50814-1.89537,3.35943,3.35943,0,0,0-1.23487-1.3116,3.563,3.563,0,0,0-1.88053-.47737,3.49224,3.49224,0,0,0-2.12229.64422,4.03255,4.03255,0,0,0-1.34924,1.85737,8.24051,8.24051,0,0,0-.47049,2.97172v2.3199a8.32788,8.32788,0,0,0,.46181,2.95652,3.81942,3.81942,0,0,0,1.35068,1.83456,3.612,3.612,0,0,0,2.12953.62142,3.69328,3.69328,0,0,0,1.88777-.46217,3.24728,3.24728,0,0,0,1.23632-1.266,4.3088,4.3088,0,0,0,.49945-1.83457h4.74548v.591a6.674,6.674,0,0,1-1.14366,3.72234,7.33172,7.33172,0,0,1-2.97932,2.48675,9.91479,9.91479,0,0,1-4.27644.8867,9.60912,9.60912,0,0,1-4.90473-1.16719,7.54121,7.54121,0,0,1-3.04736-3.30541,11.52111,11.52111,0,0,1-1.03943-5.07917V84.1892a11.52824,11.52824,0,0,1,1.04667-5.102,7.583,7.583,0,0,1,3.0546-3.31264,9.58325,9.58325,0,0,1,4.89025-1.16755,10.41149,10.41149,0,0,1,3.321.50777,7.88782,7.88782,0,0,1,2.63767,1.46324,6.86665,6.86665,0,0,1,2.44078,5.246Zm23.84323,13.547h-4.98724V87.19132h-7.62636v8.47542h-4.9887v-20.696h4.9887v8.18734h7.62636V74.97075h4.98724Zm27.56811,0-3.50338-7.39908h-2.86495v7.39908h-4.89749v-20.696h8.74831a9.29475,9.29475,0,0,1,4.15483.84147,5.92141,5.92141,0,0,1,2.57687,2.3655,7.01633,7.01633,0,0,1,.88018,3.57033,6.18653,6.18653,0,0,1-.5921,2.78244,6.30733,6.30733,0,0,1-1.44767,1.94821,6.07908,6.07908,0,0,1-1.66049,1.09155l4.12443,8.09649Zm23.58555,0-1.34924-4.77589h-6.4132L467.397,95.66674h-4.97422l6.67235-20.696h6.06431l6.6405,20.696Zm27.01944-4.86709a7.6038,7.6038,0,0,1-3.07777,3.6087,10.00212,10.00212,0,0,1-5.26809,1.25839h-8.11278v-20.696h8.11278a10.21537,10.21537,0,0,1,5.2985,1.236,7.4381,7.4381,0,0,1,3.06328,3.53269,13.805,13.805,0,0,1,.99311,5.49611A14.05041,14.05041,0,0,1,503.52816,90.79965ZM522.209,95.66674l-1.34923-4.77589h-6.41321l-1.34923,4.77589h-4.97422l6.67234-20.696h6.06432l6.64049,20.696Zm21.82807,0-3.50337-7.39908h-2.865v7.39908h-4.89749v-20.696h8.74831a9.29472,9.29472,0,0,1,4.15483.84147,5.92141,5.92141,0,0,1,2.57687,2.3655,7.01633,7.01633,0,0,1,.88019,3.57033,6.18653,6.18653,0,0,1-.5921,2.78244,6.30735,6.30735,0,0,1-1.44768,1.94821,6.079,6.079,0,0,1-1.66048,1.09155l4.12443,8.09649Z"/><polygon class="cls-1" points="517.569 79.429 515.372 87.297 519.965 87.297 517.796 79.429 517.569 79.429"/></svg>